# xmcd
#
# Track frame offsets: 
#        150
#        10243
#        36212
#        55035
#        71615
#        110499
#        146110
#        181636
#        198312
#        234125
#        265471
#        297551
#        345572
#        367575
#
# Disc length: 5321 seconds
#
# Revision: 0
# Processed by: cddbd v1.5.2PL0 Copyright (c) Steve Scherf et al.
# Submitted via: ExactAudioCopyFreeDBPlugin 1.0
#
DISCID=ca14c70e
DTITLE=Joe Bonamassa - Tour de Force
DYEAR=1900
DGENRE=
TTITLE0=Albion
TTITLE1=I know where i belong
TTITLE2=Spanish boots
TTITLE3=Your funeral my trial
TTITLE4=Blues de luxe
TTITLE5=Pain and sorrow
TTITLE6=Happier times
TTITLE7=Steal your heart away
TTITLE8=Miss you, hate you
TTITLE9=The river
TTITLE10=Burning hell
TTITLE11=Don't burn down that bridge
TTITLE12=Story of a Quarryman
TTITLE13=Are you Experienced
EXTD=
EXTT0=
EXTT1=
EXTT2=
EXTT3=
EXTT4=
EXTT5=
EXTT6=
EXTT7=
EXTT8=
EXTT9=
EXTT10=
EXTT11=
EXTT12=
EXTT13=
PLAYORDER=
